<?xml version="1.0" encoding="UTF-8"?>
<svg width="24px" height="24px" viewBox="0 0 24 24" version="1.1" xmlns="http://www.w3.org/2000/svg" xmlns:xlink="http://www.w3.org/1999/xlink">
    <!-- Generator: Sketch 53.2 (72643) - https://sketchapp.com -->
    <title>Icons/at-sign</title>
    <desc>Created with Sketch.</desc>
    <g id="Icons/at-sign" stroke="none" stroke-width="1" fill="none" fill-rule="evenodd">
        <path d="M15.0000001,7.99963386 C15.0001979,7.44751739 15.4478373,7 16,7 C16.5522847,7 17,7.44771525 17,8 L17,13 C17,14.1045695 17.8954305,15 19,15 C20.1045695,15 21,14.1045695 21,13 L21,12.000063 C20.9997366,7.81767709 18.118321,4.18663586 14.0453747,3.23613074 C9.97242834,2.28562562 5.78143342,4.26617557 3.92993033,8.01641397 C2.07842724,11.7666524 3.05440558,16.2981513 6.28556538,18.9537036 C9.51672518,21.609256 14.151449,21.6889536 17.472,19.146063 C17.9104793,18.8102738 18.5381479,18.8935207 18.873937,19.332 C19.2097262,19.7704793 19.1264793,20.3981479 18.688,20.733937 C14.6295488,23.8419144 8.96488632,23.7445062 5.01569101,20.4988312 C1.0664957,17.2531561 -0.126366706,11.7146574 2.13658151,7.13103269 C4.39952973,2.54740798 9.52185686,0.126735822 14.4999024,1.2884643 C19.4779479,2.45019278 22.9996781,6.88813206 23,12 L23,13 C23,15.209139 21.209139,17 19,17 C17.6551019,17 16.4652273,16.3362652 15.7400738,15.3184931 C14.8241516,16.3500188 13.4879814,17 12,17 C9.23857625,17 7,14.7614237 7,12 C7,9.23857625 9.23857625,7 12,7 C13.1256059,7 14.1643395,7.37194484 15.0000001,7.99963386 Z M12,15 C13.6568542,15 15,13.6568542 15,12 C15,10.3431458 13.6568542,9 12,9 C10.3431458,9 9,10.3431458 9,12 C9,13.6568542 10.3431458,15 12,15 Z" id="icon" fill="#151515"></path>
    </g>
</svg>