<?xml version="1.0" encoding="UTF-8"?>
<svg width="24px" height="24px" viewBox="0 0 24 24" version="1.1" xmlns="http://www.w3.org/2000/svg" xmlns:xlink="http://www.w3.org/1999/xlink">
    <!-- Generator: Sketch 53.2 (72643) - https://sketchapp.com -->
    <title>Icons/facebook-color</title>
    <desc>Created with Sketch.</desc>
    <g id="Icons/facebook" stroke="none" stroke-width="1" fill="none" fill-rule="evenodd">
        <path d="M15.1659167,22 L15.1659167,14.7401741 L17.5308907,14.7401741 L17.8840083,11.9229269 L15.1659167,11.9229269 L15.1659167,10.0984239 C15.1659167,9.26666521 15.378473,8.70321577 16.5143918,8.70321577 L18,8.70321577 L18,6.1073237 C17.7491608,6.07378505 16.8715092,6 15.8715806,6 C13.7831583,6 12.3718306,7.34825402 12.3718306,9.79657599 L12.3718306,11.9229269 L10,11.9229269 L10,14.7401741 L12.3712592,14.7401741 L12.3667393,22 L3.66666667,22 C2.75520833,22 2,21.2447917 2,20.3333333 L2,3.66666667 C2,2.75520833 2.75520833,2 3.66666667,2 L20.3333333,2 C21.2447917,2 22,2.75520833 22,3.66666667 L22,20.3333333 C22,21.2447917 21.2447917,22 20.3333333,22 L15.1659167,22 Z" id="icon" fill="#3B5998"></path>
    </g>
</svg>