<svg xmlns="http://www.w3.org/2000/svg" width="450" viewBox="0 0 450 450" height="450" version="1.0"><path fill="#40E0D0" d="M 150 90 C 116.863281 90 90 116.863281 90 150 L 90 300 C 90 333.136719 116.863281 360 150 360 L 300 360 C 333.136719 360 360 333.136719 360 300 L 360 150 C 360 116.863281 333.136719 90 300 90 Z M 150 60 L 300 60 C 349.707031 60 390 100.292969 390 150 L 390 300 C 390 349.707031 349.707031 390 300 390 L 150 390 C 100.292969 390 60 349.707031 60 300 L 60 150 C 60 100.292969 100.292969 60 150 60 Z M 270.164062 217.75 C 267.253906 198.140625 251.859375 182.746094 232.25 179.835938 C 213.046875 176.992188 194.179688 186.777344 185.453125 204.117188 C 176.726562 221.460938 180.101562 242.445312 193.828125 256.171875 C 207.554688 269.898438 228.539062 273.273438 245.882812 264.546875 C 263.222656 255.820312 273.007812 236.953125 270.164062 217.75 Z M 299.835938 213.351562 C 304.585938 245.355469 288.269531 276.796875 259.367188 291.34375 C 230.464844 305.890625 195.492188 300.261719 172.617188 277.382812 C 149.738281 254.507812 144.109375 219.535156 158.65625 190.632812 C 173.203125 161.730469 204.644531 145.414062 236.648438 150.164062 C 269.332031 155.007812 294.992188 180.667969 299.835938 213.351562 Z M 307.5 165 C 295.074219 165 285 154.925781 285 142.5 C 285 130.074219 295.074219 120 307.5 120 C 319.925781 120 330 130.074219 330 142.5 C 330 154.925781 319.925781 165 307.5 165 Z M 307.5 165" fill-rule="evenodd"/></svg>