<?xml version="1.0" encoding="UTF-8"?>
<svg width="24px" height="24px" viewBox="0 0 24 24" version="1.1" xmlns="http://www.w3.org/2000/svg" xmlns:xlink="http://www.w3.org/1999/xlink">
    <!-- Generator: Sketch 53.2 (72643) - https://sketchapp.com -->
    <title>Icons/maximize</title>
    <desc>Created with Sketch.</desc>
    <g id="Icons/maximize" stroke="none" stroke-width="1" fill="none" fill-rule="evenodd">
        <path d="M8,2 C8.55228475,2 9,2.44771525 9,3 C9,3.55228475 8.55228475,4 8,4 L5,4 C4.44771525,4 4,4.44771525 4,5 L4,8 C4,8.55228475 3.55228475,9 3,9 C2.44771525,9 2,8.55228475 2,8 L2,5 C2,3.34314575 3.34314575,2 5,2 L8,2 Z M22,8 C22,8.55228475 21.5522847,9 21,9 C20.4477153,9 20,8.55228475 20,8 L20,5 C20,4.44771525 19.5522847,4 19,4 L16,4 C15.4477153,4 15,3.55228475 15,3 C15,2.44771525 15.4477153,2 16,2 L19,2 C20.6568542,2 22,3.34314575 22,5 L22,8 Z M16,22 C15.4477153,22 15,21.5522847 15,21 C15,20.4477153 15.4477153,20 16,20 L19,20 C19.5522847,20 20,19.5522847 20,19 L20,16 C20,15.4477153 20.4477153,15 21,15 C21.5522847,15 22,15.4477153 22,16 L22,19 C22,20.6568542 20.6568542,22 19,22 L16,22 Z M2,16 C2,15.4477153 2.44771525,15 3,15 C3.55228475,15 4,15.4477153 4,16 L4,19 C4,19.5522847 4.44771525,20 5,20 L8,20 C8.55228475,20 9,20.4477153 9,21 C9,21.5522847 8.55228475,22 8,22 L5,22 C3.34314575,22 2,20.6568542 2,19 L2,16 Z" id="icon" fill="#151515"></path>
    </g>
</svg>