<?xml version="1.0" encoding="UTF-8"?>
<svg width="24px" height="24px" viewBox="0 0 24 24" version="1.1" xmlns="http://www.w3.org/2000/svg" xmlns:xlink="http://www.w3.org/1999/xlink">
    <!-- Generator: Sketch 53.2 (72643) - https://sketchapp.com -->
    <title>Icons/package-color</title>
    <desc>Created with Sketch.</desc>
    <g id="Icons/package" stroke="none" stroke-width="1" fill="none" fill-rule="evenodd">
        <path d="M17.4576229,9.38922255 C17.4511749,9.3925343 17.4446931,9.39577512 17.4381788,9.3989446 L13,11.618034 L13,21.3869662 L20.4450001,17.6644694 C20.784829,17.4956044 20.9997988,17.1489413 21,16.77 L21.0000001,7.61803392 L17.4576262,9.38922091 Z M7.00499805,4.62053302 L4.24106485,6.00249844 L12,9.88196601 L14.763932,8.5 L7.00499805,4.62053302 Z M9.24106699,3.50249951 L17,7.38196601 L19.758932,6.0025 L12.4440819,2.34507496 C12.1639647,2.20623816 11.8350128,2.20638883 11.5572136,2.34442719 L9.24106699,3.50249951 Z M6.46892512,2.65250508 C6.52303518,2.61866909 6.58014004,2.59016546 6.6393617,2.56728685 L10.665,0.554469431 C11.5059489,0.136591707 12.4940511,0.136591707 13.335,0.554469431 L21.3349999,4.55446936 C22.3544864,5.06106438 22.9993958,6.1010534 23,7.24 L22.9999999,16.7705306 C22.9993958,17.9089466 22.3544864,18.9489356 21.3372136,19.4544272 L13.3375,23.4542839 C12.4924481,23.8771482 11.4975519,23.8771482 10.6527864,23.4544272 L2.65002422,19.4530408 C1.63151282,18.9398442 0.992087212,17.8935114 1,16.76 L1.00000014,7.23946936 C1.00060423,6.1010534 1.64551362,5.06106438 2.6627864,4.55557281 L6.46892512,2.65250508 Z M11,21.3919661 L11,11.618034 L2.99999904,7.61803351 L2.99997578,16.7669592 C2.99733012,17.1471161 3.21047199,17.4958937 3.5472136,17.6655728 L11,21.3919661 Z" id="icon" fill="#FF6852"></path>
    </g>
</svg>