<?xml version="1.0" encoding="UTF-8"?>
<svg width="24px" height="24px" viewBox="0 0 24 24" version="1.1" xmlns="http://www.w3.org/2000/svg" xmlns:xlink="http://www.w3.org/1999/xlink">
    <!-- Generator: Sketch 53.2 (72643) - https://sketchapp.com -->
    <title>Icons/pinterest-color</title>
    <desc>Created with Sketch.</desc>
    <g id="Icons/pinterest" stroke="none" stroke-width="1" fill="none" fill-rule="evenodd">
        <path d="M12,1 C5.92350283,1 1,5.92350283 1,12 C1,16.6621098 3.90039108,20.6402992 7.99316383,22.2444659 C7.89648483,21.3743494 7.80696592,20.0387367 8.02897158,19.0862633 C8.22949242,18.2304688 9.31803408,13.6184896 9.31803408,13.6184896 C9.31803408,13.6184896 8.9921875,12.9596354 8.9921875,11.9856771 C8.9921875,10.4567055 9.87662783,9.31445358 10.9794924,9.31445358 C11.917643,9.31445358 12.3723958,10.019857 12.3723958,10.8649091 C12.3723958,11.8102216 11.7708333,13.2210284 11.4593097,14.5279952 C11.2014972,15.6236979 12.0107424,16.5152992 13.0885417,16.5152992 C15.0436202,16.5152992 16.5475265,14.4527992 16.5475265,11.477214 C16.5475265,8.84537783 14.6569015,7.00488258 11.9534507,7.00488258 C8.823893,7.00488258 6.98697917,9.35026042 6.98697917,11.7779953 C6.98697917,12.7233077 7.352214,13.7366534 7.80696592,14.2880862 C7.89648483,14.3955076 7.90722633,14.4921875 7.88216192,14.6031903 C7.79622442,14.9505208 7.613607,15.698893 7.57779925,15.8492841 C7.5276695,16.0533854 7.41666667,16.0963542 7.20898483,15.9960938 C5.83398483,15.3587244 4.97460983,13.3499347 4.97460983,11.7350265 C4.97460983,8.26529925 7.49544317,5.07845075 12.2434896,5.07845075 C16.0605473,5.07845075 19.0253911,7.79622442 19.0253911,11.4342453 C19.0253911,15.2226562 16.633464,18.2734375 13.3177083,18.2734375 C12.2041013,18.2734375 11.1549479,17.6969403 10.796875,17.0130208 C10.796875,17.0130208 10.2454432,19.1113286 10.109375,19.6269536 C9.86230492,20.5830076 9.19270833,21.7789716 8.74153692,22.5094403 C9.77278692,22.828125 10.8649091,23 12,23 C18.0764972,23 23,18.0764972 23,12 C23,5.92350283 18.0764972,1 12,1 Z" id="icon" fill="#D32D2F"></path>
    </g>
</svg>