<?xml version="1.0" encoding="UTF-8"?>
<svg width="24px" height="24px" viewBox="0 0 24 24" version="1.1" xmlns="http://www.w3.org/2000/svg" xmlns:xlink="http://www.w3.org/1999/xlink">
    <!-- Generator: Sketch 53.2 (72643) - https://sketchapp.com -->
    <title>Icons/rotate-ccw-color</title>
    <desc>Created with Sketch.</desc>
    <g id="Icons/rotate-ccw" stroke="none" stroke-width="1" fill="none" fill-rule="evenodd">
        <path d="M4.47425907,9 L8,9 C8.55228475,9 9,9.44771525 9,10 C9,10.5522847 8.55228475,11 8,11 L2,11 C1.44771525,11 1,10.5522847 1,10 L1,4 C1,3.44771525 1.44771525,3 2,3 C2.55228475,3 3,3.44771525 3,4 L3,7.63933251 L5.93349137,4.93229558 C9.08552723,1.78558562 13.9387091,1.10276992 17.8366406,3.25758867 C21.734572,5.41240743 23.7375706,9.88539394 22.7492919,14.2282523 C21.7610132,18.5711107 18.0197038,21.7368989 13.5731749,21.9928181 C9.12664603,22.2487372 5.04683181,19.5330922 3.5668247,15.3322956 C3.38330292,14.8113942 3.65680309,14.2403465 4.17770442,14.0568247 C4.69860576,13.8733029 5.26965352,14.1468031 5.4531753,14.6677044 C6.63718099,18.0283418 9.90103237,20.2008577 13.4582555,19.9961224 C17.0154786,19.7913871 20.0085261,17.2587565 20.7991491,13.7844698 C21.589772,10.3101831 19.9873732,6.7317939 16.869028,5.0079389 C13.7506828,3.28408389 9.86813732,3.83033645 7.32477659,6.36875306 L4.47425907,9 Z" id="icon" fill="#FF6852"></path>
    </g>
</svg>