<?xml version="1.0" encoding="UTF-8"?>
<svg width="24px" height="24px" viewBox="0 0 24 24" version="1.1" xmlns="http://www.w3.org/2000/svg" xmlns:xlink="http://www.w3.org/1999/xlink">
    <!-- Generator: Sketch 53.2 (72643) - https://sketchapp.com -->
    <title>Icons/search</title>
    <desc>Created with Sketch.</desc>
    <g id="Icons/search" stroke="none" stroke-width="1" fill="none" fill-rule="evenodd">
        <path d="M16.3198574,14.9056439 L21.7071068,20.2928932 C22.0976311,20.6834175 22.0976311,21.3165825 21.7071068,21.7071068 C21.3165825,22.0976311 20.6834175,22.0976311 20.2928932,21.7071068 L14.9056439,16.3198574 C13.5509601,17.3729184 11.8487115,18 10,18 C5.581722,18 2,14.418278 2,10 C2,5.581722 5.581722,2 10,2 C14.418278,2 18,5.581722 18,10 C18,11.8487115 17.3729184,13.5509601 16.3198574,14.9056439 Z M10,16 C13.3137085,16 16,13.3137085 16,10 C16,6.6862915 13.3137085,4 10,4 C6.6862915,4 4,6.6862915 4,10 C4,13.3137085 6.6862915,16 10,16 Z" id="icon" fill="#151515"></path>
    </g>
</svg>