<?xml version="1.0" encoding="UTF-8"?>
<svg width="24px" height="24px" viewBox="0 0 24 24" version="1.1" xmlns="http://www.w3.org/2000/svg" xmlns:xlink="http://www.w3.org/1999/xlink">
    <!-- Generator: Sketch 53.2 (72643) - https://sketchapp.com -->
    <title>Icons/send-right-white</title>
    <desc>Created with Sketch.</desc>
    <g id="Icons/send-right" stroke="none" stroke-width="1" fill="none" fill-rule="evenodd">
        <path d="M18.646966,1.06537091 C18.6759294,1.05452899 18.7052947,1.04507668 18.7349588,1.03701399 C19.478498,0.830601366 20.1693986,1.52150201 19.962986,2.26504124 C19.9549233,2.29470535 19.945471,2.32407062 19.9346291,2.35303403 L12.9425581,22.3303799 C12.643391,23.1851427 11.4528546,23.2337135 11.0850535,22.4061612 L7.24160287,13.7583971 L-1.40616115,9.91494646 C-2.23371349,9.54714542 -2.18514274,8.35660895 -1.33037986,8.05744195 L18.646966,1.06537091 Z M16.606903,5.80718461 L9.19178075,13.2223069 L11.8881889,19.2892251 L16.606903,5.80718461 Z M7.7776931,11.8082193 L15.1928154,4.39309696 L1.71077486,9.11181115 L7.7776931,11.8082193 Z" id="icon" fill="#FFFFFF" transform="translate(9.000000, 12.000000) rotate(-315.000000) translate(-9.000000, -12.000000) "></path>
    </g>
</svg>