<?xml version="1.0" encoding="UTF-8"?>
<svg width="24px" height="24px" viewBox="0 0 24 24" version="1.1" xmlns="http://www.w3.org/2000/svg" xmlns:xlink="http://www.w3.org/1999/xlink">
    <!-- Generator: Sketch 53.2 (72643) - https://sketchapp.com -->
    <title>Icons/thumbs-up-color</title>
    <desc>Created with Sketch.</desc>
    <g id="Icons/thumbs-up" stroke="none" stroke-width="1" fill="none" fill-rule="evenodd">
        <path d="M6.98373103,22 L4,22 C2.34314575,22 1,20.6568542 1,19 L1,12 C1,10.3431458 2.34314575,9 4,9 L6.35012691,9 L10.0861885,0.593861534 C10.2466898,0.232733521 10.6048113,1.06359366e-13 11,1.0658141e-13 C13.209139,1.07765648e-13 15,1.790861 15,4 L15,7.00001135 L19.6486763,7.00006412 C20.5288038,6.99009715 21.368906,7.36714393 21.946464,8.03133562 C22.524022,8.69552732 22.7807603,9.5798471 22.6484478,10.451562 L21.2686957,19.4499361 C21.0443874,20.9290503 19.7646258,22.0168476 18.2800115,22 L7.00001149,22.0001297 C6.99457443,22.0001297 6.9891475,22.0000864 6.98373103,22 Z M8,20.0001287 L18.2913043,20.0000639 C18.7899477,20.0057011 19.2165349,19.643102 19.2915522,19.148438 L20.6713237,10.1499359 C20.7153517,9.85986354 20.6297723,9.56509029 20.437253,9.34369305 C20.2447337,9.12229582 19.9646996,8.99661356 19.66,9 L14,9 C13.4477153,9 13,8.55228475 13,8 L13,4 C13,3.107435 12.4153102,2.35143161 11.6080478,2.09410694 L8,10.2122145 L8,20.0001287 Z M6,20 L6,11 L4,11 C3.44771525,11 3,11.4477153 3,12 L3,19 C3,19.5522847 3.44771525,20 4,20 L6,20 Z" id="icon" fill="#FF6852"></path>
    </g>
</svg>