<?xml version="1.0" encoding="UTF-8"?>
<svg width="24px" height="24px" viewBox="0 0 24 24" version="1.1" xmlns="http://www.w3.org/2000/svg" xmlns:xlink="http://www.w3.org/1999/xlink">
    <!-- Generator: Sketch 53.2 (72643) - https://sketchapp.com -->
    <title>Icons/twitter</title>
    <desc>Created with Sketch.</desc>
    <g id="Icons/twitter" stroke="none" stroke-width="1" fill="none" fill-rule="evenodd">
        <path d="M22,5.89706787 C21.2641667,6.21693664 20.4733333,6.43510355 19.6433333,6.53106418 C20.49,6.03157679 21.1408333,5.24010662 21.4466667,4.29772401 C20.6558333,4.75948329 19.7766667,5.09575559 18.8425,5.27865491 C18.0933333,4.49374616 17.0258333,4 15.8475,4 C13.5816667,4 11.7425,5.81012918 11.7425,8.04018864 C11.7425,8.35759688 11.7783333,8.66516301 11.85,8.95960632 C8.43916667,8.79311052 5.415,7.18474472 3.39333333,4.73979906 C3.03833333,5.33606725 2.83666667,6.03157679 2.83666667,6.77137585 C2.83666667,8.17141685 3.55916667,9.40824277 4.6625,10.1324585 C3.98916667,10.1094935 3.3575,9.9306951 2.80416667,9.6255895 C2.80416667,9.64527373 2.80416667,9.66085708 2.80416667,9.67726061 C2.80416667,11.6350215 4.21666667,13.2688128 6.095,13.637072 C5.75,13.7297519 5.38833333,13.781423 5.01416667,13.781423 C4.75083333,13.781423 4.49,13.7559975 4.2425,13.7076071 C4.76333333,15.3126922 6.28083333,16.478983 8.07416667,16.5142506 C6.67083333,17.5968833 4.9,18.2407218 2.98,18.2407218 C2.6475,18.2407218 2.3225,18.2218577 2,18.1833094 C3.81666667,19.3307361 5.97166667,20 8.28916667,20 C15.8375,20 19.9658333,13.8453968 19.9658333,8.50768915 C19.9658333,8.33463195 19.9591667,8.15829403 19.9525,7.98523683 C20.7533333,7.41521427 21.45,6.70412139 22,5.89706787 Z" id="icon" fill="#151515"></path>
    </g>
</svg>